<svg xmlns="http://www.w3.org/2000/svg" viewBox="0 0 512 512" width="512" height="512">
  <defs>
    <linearGradient id="bg" x1="0" y1="0" x2="1" y2="1">
      <stop offset="0" stop-color="#087E8B"/>
      <stop offset="1" stop-color="#0A5F6A"/>
    </linearGradient>
  </defs>
  <rect width="512" height="512" rx="112" fill="url(#bg)"/>
  <!-- Philippine sun -->
  <g fill="#FFBC42">
    <circle cx="256" cy="200" r="58"/>
    <g>
      <rect x="248" y="96" width="16" height="44" rx="6"/>
      <rect x="248" y="96" width="16" height="44" rx="6" transform="rotate(45 256 200)"/>
      <rect x="248" y="96" width="16" height="44" rx="6" transform="rotate(90 256 200)"/>
      <rect x="248" y="96" width="16" height="44" rx="6" transform="rotate(135 256 200)"/>
      <rect x="248" y="96" width="16" height="44" rx="6" transform="rotate(180 256 200)"/>
      <rect x="248" y="96" width="16" height="44" rx="6" transform="rotate(225 256 200)"/>
      <rect x="248" y="96" width="16" height="44" rx="6" transform="rotate(270 256 200)"/>
      <rect x="248" y="96" width="16" height="44" rx="6" transform="rotate(315 256 200)"/>
    </g>
  </g>
  <!-- speech / chat bubble tail to hint at language learning -->
  <text x="256" y="400" font-family="Catamaran, Arial, sans-serif" font-size="120" font-weight="900"
        fill="#ffffff" text-anchor="middle">Tara!</text>
</svg>
